HIERARCHY
ROOT hip
{
  OFFSET 0 0 0
  CHANNELS 6 Xposition Yposition Zposition Zrotation Yrotation Xrotation
  JOINT abdomen
  {
    OFFSET 0 20.6881 -0.73152
    CHANNELS 3 Zrotation Xrotation Yrotation
    JOINT chest
    {
      OFFSET 0 11.7043 -0.48768
      CHANNELS 3 Zrotation Xrotation Yrotation
      JOINT neck
      {
        OFFSET 0 22.1894 -2.19456
        CHANNELS 3 Zrotation Xrotation Yrotation
        JOINT head
        {
          OFFSET -0.24384 7.07133 1.2192
          CHANNELS 3 Zrotation Xrotation Yrotation
          JOINT leftEye
          {
            OFFSET 4.14528 8.04674 8.04672
            CHANNELS 3 Zrotation Xrotation Yrotation
            End Site
            {
              OFFSET 1 0 0
            }
          }
          JOINT rightEye
          {
            OFFSET -3.6576 8.04674 8.04672
            CHANNELS 3 Zrotation Xrotation Yrotation
            End Site
            {
              OFFSET 1 0 0
            }
          }
        }
      }
      JOINT rCollar
      {
        OFFSET -2.68224 19.2634 -4.8768
        CHANNELS 3 Zrotation Xrotation Yrotation
        JOINT rShldr
        {
          OFFSET -8.77824 -1.95073 1.46304
          CHANNELS 3 Zrotation Xrotation Yrotation
          JOINT rForeArm
          {
            OFFSET -28.1742 -1.7115 0.48768
            CHANNELS 3 Zrotation Xrotation Yrotation
            JOINT rHand
            {
              OFFSET -22.5879 0.773209 7.07136
              CHANNELS 3 Zrotation Xrotation Yrotation
              JOINT rThumb1
              {
                OFFSET -1.2192 -0.487915 3.41376
                CHANNELS 3 Zrotation Xrotation Yrotation
                JOINT rThumb2
                {
                  OFFSET -3.37035 -0.52449 3.41376
                  CHANNELS 3 Zrotation Xrotation Yrotation
                  End Site
                  {
                    OFFSET -1.78271 -1.18214 1.43049
                  }
                }
              }
              JOINT rIndex1
              {
                OFFSET -7.75947 0.938293 5.60832
                CHANNELS 3 Zrotation Xrotation Yrotation
                JOINT rIndex2
                {
                  OFFSET -2.54057 -0.884171 1.56538
                  CHANNELS 3 Zrotation Xrotation Yrotation
                  End Site
                  {
                    OFFSET -1.62519 -0.234802 1.16502
                  }
                }
              }
              JOINT rMid1
              {
                OFFSET -8.24714 1.18213 3.41376
                CHANNELS 3 Zrotation Xrotation Yrotation
                JOINT rMid2
                {
                  OFFSET -3.10165 -0.590103 1.0647
                  CHANNELS 3 Zrotation Xrotation Yrotation
                  End Site
                  {
                    OFFSET -2.48547 -0.328903 0.83742
                  }
                }
              }
              JOINT rRing1
              {
                OFFSET -8.82822 0.546677 1.51678
                CHANNELS 3 Zrotation Xrotation Yrotation
                JOINT rRing2
                {
                  OFFSET -2.60934 -0.819778 -0.0198488
                  CHANNELS 3 Zrotation Xrotation Yrotation
                  End Site
                  {
                    OFFSET -2.33842 -0.294052 0.168128
                  }
                }
              }
              JOINT rPinky1
              {
                OFFSET -8.27202 -0.0477905 -0.4584
                CHANNELS 3 Zrotation Xrotation Yrotation
                JOINT rPinky2
                {
                  OFFSET -1.82734 -0.647385 -0.700984
                  CHANNELS 3 Zrotation Xrotation Yrotation
                  End Site
                  {
                    OFFSET -1.69225 -0.51767 -0.607171
                  }
                }
              }
            }
          }
        }
      }
      JOINT lCollar
      {
        OFFSET 2.68224 19.2634 -4.8768
        CHANNELS 3 Zrotation Xrotation Yrotation
        JOINT lShldr
        {
          OFFSET 8.77824 -1.95073 1.46304
          CHANNELS 3 Zrotation Xrotation Yrotation
          JOINT lForeArm
          {
            OFFSET 28.1742 -1.7115 0.48768
            CHANNELS 3 Zrotation Xrotation Yrotation
            JOINT lHand
            {
              OFFSET 22.5879 0.773209 7.07136
              CHANNELS 3 Zrotation Xrotation Yrotation
              JOINT lThumb1
              {
                OFFSET 1.2192 -0.487915 3.41376
                CHANNELS 3 Zrotation Xrotation Yrotation
                JOINT lThumb2
                {
                  OFFSET 3.37035 -0.52449 3.41376
                  CHANNELS 3 Zrotation Xrotation Yrotation
                  End Site
                  {
                    OFFSET 1.78271 -1.18214 1.43049
                  }
                }
              }
              JOINT lIndex1
              {
                OFFSET 7.75947 0.938293 5.60832
                CHANNELS 3 Zrotation Xrotation Yrotation
                JOINT lIndex2
                {
                  OFFSET 2.54057 -0.884171 1.56538
                  CHANNELS 3 Zrotation Xrotation Yrotation
                  End Site
                  {
                    OFFSET 1.62519 -0.234802 1.16502
                  }
                }
              }
              JOINT lMid1
              {
                OFFSET 8.24714 1.18213 3.41376
                CHANNELS 3 Zrotation Xrotation Yrotation
                JOINT lMid2
                {
                  OFFSET 3.10165 -0.590103 1.0647
                  CHANNELS 3 Zrotation Xrotation Yrotation
                  End Site
                  {
                    OFFSET 2.48547 -0.328903 0.83742
                  }
                }
              }
              JOINT lRing1
              {
                OFFSET 8.82822 0.546677 1.51678
                CHANNELS 3 Zrotation Xrotation Yrotation
                JOINT lRing2
                {
                  OFFSET 2.60934 -0.819778 -0.0198488
                  CHANNELS 3 Zrotation Xrotation Yrotation
                  End Site
                  {
                    OFFSET 2.33842 -0.294052 0.168128
                  }
                }
              }
              JOINT lPinky1
              {
                OFFSET 8.27202 -0.0477905 -0.4584
                CHANNELS 3 Zrotation Xrotation Yrotation
                JOINT lPinky2
                {
                  OFFSET 1.82734 -0.647385 -0.700984
                  CHANNELS 3 Zrotation Xrotation Yrotation
                  End Site
                  {
                    OFFSET 1.69225 -0.51767 -0.607171
                  }
                }
              }
            }
          }
        }
      }
    }
  }
  JOINT rButtock
  {
    OFFSET -8.77824 4.35084 1.2192
    CHANNELS 3 Zrotation Xrotation Yrotation
    JOINT rThigh
    {
      OFFSET 0 -1.70687 -2.19456
      CHANNELS 3 Zrotation Xrotation Yrotation
      JOINT rShin
      {
        OFFSET 0 -36.8199 0.73152
        CHANNELS 3 Zrotation Xrotation Yrotation
        JOINT rFoot
        {
          OFFSET 0.73152 -45.1104 -5.12064
          CHANNELS 3 Zrotation Xrotation Yrotation
          End Site
          {
            OFFSET -1.1221 -3.69964 12.103
          }
        }
      }
    }
  }
  JOINT lButtock
  {
    OFFSET 8.77824 4.35084 1.2192
    CHANNELS 3 Zrotation Xrotation Yrotation
    JOINT lThigh
    {
      OFFSET 0 -1.70687 -2.19456
      CHANNELS 3 Zrotation Xrotation Yrotation
      JOINT lShin
      {
        OFFSET 0 -36.8199 0.73152
        CHANNELS 3 Zrotation Xrotation Yrotation
        JOINT lFoot
        {
          OFFSET -0.73152 -45.1104 -5.12064
          CHANNELS 3 Zrotation Xrotation Yrotation
          End Site
          {
            OFFSET 1.1221 -3.69964 12.103
          }
        }
      }
    }
  }
}
MOTION
Frames:	4
Frame Time:	0.03333
1.3346 73.2688 3.8682000000000003 -2.720689 57.711515 -0.656849 -1.376232 4.943461 0.061476 2.499872 -7.221704 4.64578 2.844818 28.880406 158.809536 -10.683521 33.193429 -168.273919 0.003167 -0.0 -0.001285 -0.002528 0.0 -0.000659 -6.042661 25.599053 7.234851 84.375968 -54.015764 95.856139 -42.273895 -10.636574 119.962803 8.448917 -3.032502 7.645247 -173.984407 -11.650643 89.880225 114.461818 -63.639378 85.301799 12.562696 -22.428195 -5.202785 11.965252 3.156987 -0.809045 -160.826701 -7.141683 143.316495 -163.779173 -6.246281 143.112766 -145.111672 -0.669174 -178.919006 11.979687 29.599276 -5.64098 4.5964 13.359809 4.156325 -40.423405 -49.939267 -40.44618 -0.117454 -0.714076 0.158146 98.897951 12.358954 -98.164531 -15.554682 35.925419 147.668349 -156.732426 -31.336004 -142.091632 -114.538748 -50.245175 -55.721455 32.87761 -8.083646 12.887538 83.732559 42.331237 -69.990108 172.021495 -22.837583 -113.923331 0.286335 0.832677 -0.16155 178.324008 -46.182524 -142.124639 -0.005263 1.771425 -0.55622 6.323397 62.264453 -18.85458 145.172911 12.067617 141.823125 111.56594 -42.677864 109.999469 -0.002104 -0.000428 -0.0 7.359422 -39.557282 -168.535532 -35.207607 -64.529634 -167.846261 -167.025361 9.078779 61.48023 0.007364 -0.000428 0.007364 -8.809917 -38.726913 -5.675097 17.913632 78.119123 124.527194 157.449171 37.250759 109.397777
1.4527999999999999 73.1719 3.8869000000000002 -2.957813 57.493472 -0.835619 -0.102685 0.224093 -155.381575 -0.22521 3.148056 159.968925 -6.140323 11.076697 -7.324785 8.153294 -15.492195 -3.165802 -0.000391 -0.0 0.001312 -0.000391 -0.0 0.001312 4.239152 -44.742776 -8.6477 -134.587394 0.631751 140.091207 -2.368479 36.107527 -140.561526 141.130383 -48.652773 129.906076 -4.166373 4.057467 0.783895 -6.817197 7.825404 8.293811 -46.208844 39.651972 36.319248 6.734976 0.011231 -2.549344 89.034869 -81.393621 59.758858 0.108218 8.243152 1.485529 0.004011 1.771388 0.55649 -155.587722 -1.613384 172.043319 -146.183184 15.332465 -142.711726 -148.42519 14.080605 -142.238872 82.105872 68.325521 -85.221543 55.602222 13.081867 -5.126446 -111.025994 -49.341005 131.635296 137.885719 77.403316 -122.527996 68.48192 37.953334 -35.660352 115.998507 -15.734927 -81.46959 -37.216781 -57.917515 0.643542 -12.057666 7.154834 2.784275 -173.122545 -66.297746 -137.612495 -2.487765 1.609548 -0.477916 -0.003807 1.772114 -0.558171 -3.014432 45.206577 -8.973981 3.811435 -9.06445 3.561096 154.251104 37.446635 148.447763 -179.987908 75.750724 -0.009949 -173.219991 38.074344 -10.912042 2.15705 66.495448 34.269453 -97.765448 30.991706 0.760821 179.99824 75.747367 0.001553 171.799353 34.099266 -165.583814 -12.948887 -75.188163 67.158724 -178.635865 3.395742 -119.771443
1.6122 73.0406 3.9107000000000003 -3.088579 57.166892 -0.79191 -3.182247 3.113358 67.473489 -3.792898 -6.732807 -62.839358 -7.996917 12.158976 -18.167367 13.183542 -13.771397 8.407084 0.001762 0.0 0.005449 0.000902 -0.0 -0.002574 -142.973915 39.431607 147.389967 -6.332415 16.090518 -24.087719 76.625175 -35.603668 -121.523136 176.649048 26.890216 154.441617 -99.394774 37.101345 57.491922 65.507068 -45.931817 31.951379 -140.164644 2.32594 115.877193 -169.128163 -26.699866 118.440241 -8.41602 20.880812 5.643546 -148.090579 31.603632 134.519338 -72.132143 72.973672 89.990184 5.866409 0.512744 -4.413 -133.877713 -15.638258 -131.332162 1.985776 -2.162967 -2.519839 0.048683 0.292392 -0.065273 -0.147094 -0.795857 -71.500616 170.614071 35.672652 -37.007357 -144.673197 -46.64917 -132.00992 2.813847 2.754159 -0.498983 41.715674 26.338111 -38.666748 46.207216 39.654085 -36.317575 164.556498 -11.286924 -112.142527 160.67184 -6.66799 -143.245485 167.438336 -17.359008 -143.830131 145.119603 0.267978 179.211995 -12.000998 33.17439 5.243263 12.006162 -23.632626 11.401247 19.670642 -37.802402 21.008641 0.0 0.000537 -0.000998 5.480894 -39.559729 145.114667 53.769663 -50.877828 -111.339288 83.871513 -37.913552 12.85176 -0.043043 -0.000149 -0.032282 -9.557288 -41.164602 165.651679 43.018035 -69.572101 130.906514 70.578578 -44.575448 138.682962
1.7739999999999998 72.9437 3.9374 -3.160378 56.795613 -0.717279 1.253708 1.205845 -115.002356 3.671086 2.224857 119.813103 -8.015191 12.068584 -18.088613 13.206784 -13.799671 8.462897 -0.000634 0.0 -0.001054 -0.000634 0.0 -0.001054 -157.796979 -22.115567 165.467025 -127.698761 -26.683711 -152.561245 54.716333 -3.257342 156.066775 -176.680937 46.046748 153.409099 66.257592 -46.842671 22.117502 -53.65681 32.508911 19.854491 -108.42761 34.161695 91.743499 94.569051 -67.576068 45.979616 -125.644695 49.840067 115.273987 3.045384 1.053021 0.389563 -145.122083 1.080446 -179.468181 12.045421 40.328547 -4.408226 -167.298868 79.513912 -148.605479 -10.617307 -24.087648 -11.731273 -3.540667 -62.053007 13.040829 112.570331 -22.44323 -147.869581 13.941343 41.208902 126.276998 -134.98147 -53.834801 -123.182549 171.707504 -9.387896 -89.948406 135.354353 10.725063 -67.514331 108.427465 34.161478 -91.743396 6.28173 20.494614 1.394518 -0.235845 -0.689194 0.129766 -29.352606 -60.226199 -6.395224 145.122194 1.974069 179.74961 16.214697 -68.327774 37.201296 126.798586 -26.619587 124.512388 39.028224 -48.077437 40.399441 -179.992967 75.748746 -0.006206 -173.299081 37.741869 -28.767764 -62.248927 66.30401 -96.105774 91.166355 -17.347974 162.524565 -0.026509 0.000901 -0.019882 -10.466974 -39.4307 50.865892 73.509632 23.881826 5.716597 -77.834536 42.86034 -30.085459
